<?xml version="1.0" encoding="utf-8"?>
<!-- Generator: Adobe Illustrator 28.1.0, SVG Export Plug-In . SVG Version: 6.00 Build 0)  -->
<svg version="1.1" id="Layer_1" xmlns="http://www.w3.org/2000/svg" xmlns:xlink="http://www.w3.org/1999/xlink" x="0px" y="0px"
	 viewBox="0 0 860 2400" style="enable-background:new 0 0 860 2400;" xml:space="preserve">
<g>
	<path d="M472.72,1190.54c0,6.9,0,13.81,0,20.71c-1.05-0.83-2.25-0.98-3.56-0.97c-5.21,0.04-10.42,0.02-15.63-0.02
		c-0.28,0-0.68-0.24-0.81-0.49c-0.32-0.59-0.66-0.6-1.26-0.39c-0.88,0.31-1.95,0.83-2.7,0.58c-1.04-0.35-1.8-0.24-2.7,0.16
		c-0.34,0.15-0.77,0.17-1.16,0.17c-7.33,0.01-14.66,0.02-21.99-0.02c-0.5,0-1.11-0.31-1.46-0.68c-0.49-0.51-0.9-0.45-1.35-0.12
		c-1.03,0.72-2.16,0.85-3.39,0.85c-9-0.03-18.01-0.02-27.01-0.02c-0.43,0-0.85,0-1.4,0c0-1.09,0-2.07,0-3.05c0-1.02,0-2.04,0-3.09
		c0.6-0.04,1.06-0.06,1.58-0.09c0-0.4,0-0.73,0-1.09c-0.55-0.05-1.04-0.09-1.88-0.17c0.42-1.3,0.79-2.44,1.16-3.57
		c0.8-2.44,2.48-3.19,4.99-2.86c1.96,0.25,4.08-0.36,5.61,1.45c0.02,0.02,0.08,0,0.28,0c0.29-1.92,1.83-1.4,3.11-1.4
		c2.51-0.01,5.02,0,7.53,0c5.5,0,11-0.02,16.49,0.03c0.53,0.01,1.34,0.33,1.53,0.73c0.42,0.89,0.78,0.74,1.31,0.24
		c0.79-0.76,1.72-1.02,2.82-1.01c5.46,0.03,10.92,0.1,16.37-0.03c2.1-0.05,3.47,0.86,4.82,2.24c0.66,0.68,1.6,1.23,2.51,1.49
		c1.08,0.3,2.27,0.23,3.54,0.32c0-0.55,0-1.13,0-1.72c0.01-1.14,0.72-2,1.8-2.31c2.02-0.57,4.02-1.19,6.02-1.8
		C470.11,1193.95,471.85,1192.75,472.72,1190.54z"/>
</g>
</svg>
